 <svg version="1.0" xmlns="http://www.w3.org/2000/svg" width="700.000000pt" height="350.000000pt" viewBox="0 0 700.000000 350.000000" preserveAspectRatio="xMidYMid meet">
<metadata>
Created by potrace 1.12, written by Peter Selinger 2001-2015
</metadata>
<g transform="translate(0.000000,350.000000) scale(0.100000,-0.100000)" fill="#000000" stroke="none">
<path d="M906 3353 c-9 -71 -43 -328 -76 -573 -33 -245 -93 -704 -135 -1020
-42 -316 -107 -811 -145 -1100 -38 -289 -73 -551 -76 -583 l-7 -57 467 0 c302
0 466 3 466 10 0 30 51 587 55 598 3 9 44 12 159 12 l155 0 5 -42 c3 -24 13
-149 21 -278 9 -129 18 -250 21 -267 l5 -33 766 0 c760 0 885 5 1022 36 171
39 295 153 354 324 l22 65 3 1518 2 1517 -450 0 -450 0 0 -1342 c0 -949 -3
-1355 -11 -1383 -15 -53 -73 -110 -128 -125 -23 -6 -77 -10 -119 -9 l-77 2 -5
-294 c-3 -162 -8 -283 -13 -269 -4 14 -70 450 -147 970 -182 1226 -283 1907
-329 2205 l-36 240 -651 3 -651 2 -17 -127z m733 -993 c13 -151 40 -450 62
-665 21 -214 39 -400 39 -412 0 -23 -1 -23 -149 -23 l-149 0 4 43 c43 477 151
1356 164 1340 4 -5 17 -132 29 -283z"></path>
<path d="M4340 1750 l0 -1730 450 0 450 0 0 715 c0 393 3 715 8 715 4 0 86
-322 182 -715 l174 -715 463 0 c316 0 463 3 463 10 0 6 -126 433 -279 949
l-280 938 254 769 c140 423 255 775 255 782 0 9 -90 12 -419 12 l-420 0 -25
-82 c-51 -168 -329 -1105 -344 -1160 -9 -32 -20 -58 -24 -58 -4 0 -8 293 -8
650 l0 650 -450 0 -450 0 0 -1730z"></path>
</g>
</svg>